<?xml version="1.0" encoding="UTF-8"?>
<svg id="Layer_3" xmlns="http://www.w3.org/2000/svg" version="1.1" viewBox="0 0 887.78 207.41">
  <!-- Generator: Adobe Illustrator 30.2.1, SVG Export Plug-In . SVG Version: 2.1.1 Build 1)  -->
  <defs>
    <style>
      .st0 {
        fill: #fff;
      }

      .st1 {
        fill: #fa6e43;
      }
    </style>
  </defs>
  <g>
    <path class="st0" d="M297.93,180.59v-12.62h-.5c-6.47,10.29-14.44,15.11-26.56,15.11-20.09,0-31.04-12.95-31.04-32.37v-58.43h26.06v53.45c0,9.79,4.81,15.44,14.11,15.44,10.46,0,16.93-7.97,16.93-18.92v-49.97h25.73v88.31h-24.73Z"/>
    <path class="st0" d="M340.26,57.09h26.23v123.5h-26.23V57.09Z"/>
    <path class="st0" d="M384.25,57.09h26.23v123.5h-26.23V57.09Z"/>
    <path class="st1" d="M429.74,57.09h90.64v24.07h-62.42v26.89h52.12v23.07h-52.12v49.47h-28.22V57.09Z"/>
    <path class="st1" d="M534.48,57.09h26.23v123.5h-26.23V57.09Z"/>
    <path class="st1" d="M573.99,136.6c0-26.56,18.59-46.81,46.81-46.81s46.48,20.25,46.48,46.81-18.43,46.81-46.48,46.81-46.81-20.42-46.81-46.81ZM640.89,136.6c0-16.77-7.3-28.22-20.25-28.22s-20.25,11.45-20.25,28.22,6.97,27.89,20.25,27.89,20.25-11.29,20.25-27.89Z"/>
    <path class="st1" d="M669.61,92.28h26.56l9.3,34.36c2.82,10.46,5.15,27.39,5.15,27.39h.33s2.82-17.1,5.64-27.72l8.96-34.03h22.08l9.3,34.03c2.99,10.62,5.81,27.89,5.81,27.89h.33s2.32-16.93,5.31-27.56l9.46-34.36h25.73l-27.39,88.31h-24.57l-9.3-36.02c-2.66-9.96-5.48-27.06-5.48-27.06h-.33s-3.15,16.93-5.81,27.06l-9.63,36.02h-24.24l-27.22-88.31Z"/>
  </g>
  <g>
    <path class="st0" d="M126.85,91.96c-7.73.05-29.64-.56-42.64,10.12v78.51h42.64v-53.95c0-2.64,2.14-4.79,4.79-4.79h14.08s60.57,1.28,68.28-3.51c13.72-8.53,13.8-26.35,13.8-26.35l-100.92-.03h-.02Z"/>
    <path class="st0" d="M292.85,23.99H111.31c-14.97,0-27.1,12.13-27.1,27.1v44.49c7.06-5.6,20.08-12.15,42.64-12.53v-20.2c0-2.48,2.01-4.5,4.5-4.5h34.35s105.86,1.73,115.76-5.08c12.72-8.75,11.39-29.28,11.39-29.28Z"/>
  </g>
</svg>